<?xml version="1.0" encoding="utf-8"?>
<!-- Generator: Adobe Illustrator 22.0.1, SVG Export Plug-In . SVG Version: 6.00 Build 0)  -->
<svg version="1.1" id="Layer_1" xmlns="http://www.w3.org/2000/svg" xmlns:xlink="http://www.w3.org/1999/xlink" x="0px" y="0px"
	 viewBox="0 0 85.6 49.9" style="enable-background:new 0 0 85.6 49.9;" xml:space="preserve">
<style type="text/css">
	.st0{fill:none;stroke:#000000;stroke-width:1.215;}
	.st1{fill:none;stroke:#000000;stroke-width:0.3645;stroke-linecap:round;stroke-linejoin:round;}
	.st2{fill:none;stroke:#000000;stroke-width:0.6075;stroke-linecap:round;stroke-linejoin:round;}
	.st3{fill:none;stroke:#000000;stroke-width:0.8;}
</style>
<g>
	<path class="st0" d="M3.4,49.4V4c0,0-0.2-3.4,3.1-3.4h73.3c3.2,0,3,3.4,3,3.4v45.4"/>
	<path class="st0" d="M3.4,38.3h79.4"/>
	<path class="st1" d="M82.9,9.5h2.3V11h-2.3"/>
	<path class="st1" d="M82.9,34.1h2.3v1.4h-2.3"/>
	<path class="st2" d="M3.4,34.2H1.8c0,0-0.7-0.1-0.7,0.7s0,1.8,0,1.8"/>
	<path class="st2" d="M3.4,6.2H1.8c0,0-0.7-0.1-0.7,0.7v1.8L0.3,9.4"/>
	<g>
		<path class="st3" d="M9.9,0.9v37.8"/>
		<path class="st3" d="M16,0.6v37.8"/>
		<path class="st3" d="M22,0.6v37.8"/>
		<path class="st3" d="M28.1,0.6v37.8"/>
		<path class="st3" d="M34.1,0.6v37.8"/>
		<path class="st3" d="M40.2,0.6v37.8"/>
		<path class="st3" d="M46.2,0.9v37.8"/>
		<path class="st3" d="M52.3,0.6v37.8"/>
		<path class="st3" d="M58.4,0.6v37.8"/>
		<path class="st3" d="M64.4,0.6v37.8"/>
		<path class="st3" d="M70.5,0.6v37.8"/>
		<path class="st3" d="M76.5,0.6v37.8"/>
	</g>
</g>
</svg>
