<svg xmlns="http://www.w3.org/2000/svg" width="63" height="63" viewBox="0 0 63 63">
  <g id="Group_7" data-name="Group 7" transform="translate(-936.75 -331.407)">
    <path id="Path_264" data-name="Path 264" d="M968.25,394.407h0a31.5,31.5,0,0,1-31.5-31.5h0a31.5,31.5,0,0,1,31.5-31.5h0a31.5,31.5,0,0,1,31.5,31.5h0A31.5,31.5,0,0,1,968.25,394.407Z" fill="#0091ff"/>
    <path id="Path_237" data-name="Path 237" d="M975.73,362.927h-4.88v17.48h-7.28v-17.48h-3.44v-6.16h3.44v-4a8.657,8.657,0,0,1,.56-3.16,6.14,6.14,0,0,1,2.2-2.92,7.68,7.68,0,0,1,4.56-1.28l5.4.04v6h-3.92a1.551,1.551,0,0,0-1,.32,1.684,1.684,0,0,0-.52,1.36v3.64h5.52Z" fill="#fff"/>
  </g>
</svg>
