<svg xmlns="http://www.w3.org/2000/svg" width="36.551" height="36.551" viewBox="0 0 36.551 36.551">
  <path id="ic_call_24px" d="M10.351,18.818A30.761,30.761,0,0,0,23.733,32.2L28.2,27.733a2.019,2.019,0,0,1,2.071-.487A23.163,23.163,0,0,0,37.52,28.4a2.037,2.037,0,0,1,2.031,2.031V37.52a2.037,2.037,0,0,1-2.031,2.031A34.517,34.517,0,0,1,3,5.031,2.037,2.037,0,0,1,5.031,3h7.107a2.037,2.037,0,0,1,2.031,2.031,23.068,23.068,0,0,0,1.157,7.249,2.038,2.038,0,0,1-.508,2.071Z" transform="translate(-3 -3)" fill="#3d8ecb"/>
</svg>
